<?xml version="1.0" encoding="UTF-8" standalone="no"?>
<svg
   id="D10"
   viewBox="0 0 128 128"
   version="1.1"
   sodipodi:docname="D10.svg"
   width="128"
   height="128"
   inkscape:export-filename="D10.png"
   inkscape:export-xdpi="96"
   inkscape:export-ydpi="96"
   inkscape:version="1.3.2 (091e20e, 2023-11-25, custom)"
   xmlns:inkscape="http://www.inkscape.org/namespaces/inkscape"
   xmlns:sodipodi="http://sodipodi.sourceforge.net/DTD/sodipodi-0.dtd"
   xmlns="http://www.w3.org/2000/svg"
   xmlns:svg="http://www.w3.org/2000/svg">
  <defs
     id="defs1" />
  <sodipodi:namedview
     id="namedview1"
     pagecolor="#ac0000"
     bordercolor="#000000"
     borderopacity="0.25"
     inkscape:showpageshadow="2"
     inkscape:pageopacity="0.0"
     inkscape:pagecheckerboard="0"
     inkscape:deskcolor="#d1d1d1"
     inkscape:export-bgcolor="#000000ff"
     inkscape:zoom="6.5692205"
     inkscape:cx="32.347826"
     inkscape:cy="82.125421"
     inkscape:window-width="2560"
     inkscape:window-height="1369"
     inkscape:window-x="-8"
     inkscape:window-y="-8"
     inkscape:window-maximized="1"
     inkscape:current-layer="D10" />
  <path
     d="m 63.780763,0.45667519 a 6.2311342,6.2311342 0 0 0 0.441535,0.96463771 q 3.053504,6.0378521 6.103461,12.0757041 3.191816,6.321569 6.401365,12.639591 l 6.344621,12.524332 q 3.133299,6.186803 6.268372,12.371834 1.54803,3.05705 3.108474,6.103461 a 2.0995057,2.0995057 0 0 1 0.08866,0.193282 c 0.102848,0.283717 0.06916,0.384792 -0.196828,0.512464 -0.177323,0.08512 -0.365286,0.152498 -0.551475,0.223427 l -17.968151,6.951066 c -3.239694,1.251902 -6.482933,2.49671 -9.717307,3.761024 a 1.457596,1.457596 0 0 1 -1.141961,-0.02483 Q 57.212715,66.516628 51.460353,64.298316 L 35.354095,58.070728 c -0.177324,-0.07093 -0.372379,-0.138312 -0.551475,-0.2252 -0.257119,-0.124126 -0.299676,-0.242933 -0.205695,-0.514237 a 1.9665133,1.9665133 0 0 1 0.108167,-0.232294 q 1.67925,-3.323035 3.3585,-6.644297 3.418789,-6.757784 6.839352,-13.513794 1.537392,-3.037545 3.078329,-6.071544 3.266292,-6.452788 6.534357,-12.905576 L 60.500285,6.162933 63.007634,1.2315772 A 4.8125493,4.8125493 0 0 0 63.36228,0.45667519 Z M 1.6662489,69.825477 l 3.8851495,3.753931 7.7383806,7.479489 q 2.353078,2.276828 4.711476,4.550111 3.975584,3.842592 7.949395,7.690503 2.354851,2.273283 4.711475,4.550111 2.707724,2.613748 5.411901,5.234588 l 4.833828,4.67069 5.165423,4.99519 4.986326,4.81964 5.14237,4.96505 4.371015,4.22915 c 0.111713,0.10817 0.212788,0.22875 0.319181,0.34224 h 0.338688 a 4.8072296,4.8072296 0 0 0 0.07979,-0.93095 q 0,-13.46769 0.01064,-26.935384 0,-12.680376 0,-25.357206 c 0,-0.156044 0,-0.312088 0,-0.468133 -0.01064,-0.588713 -0.08511,-0.688013 -0.643683,-0.904348 Q 52.166099,69.222579 43.654589,65.931462 37.668161,63.613849 31.681733,61.289143 a 2.6048766,2.6048766 0 0 0 -1.74486,-0.07448 Q 25.700624,62.48075 21.460828,63.739744 12.146045,66.495345 2.8277153,69.2474 A 5.3427454,5.3427454 0 0 0 1.6644757,69.648154 Z M 66.249101,127.10085 c 0.113487,-0.12413 0.223427,-0.25712 0.354646,-0.37415 0.459267,-0.44154 0.925627,-0.88662 1.384893,-1.32106 q 2.432874,-2.34599 4.863974,-4.69906 l 7.770298,-7.51141 4.924263,-4.75935 7.802217,-7.54155 4.773539,-4.610411 7.708239,-7.447571 4.98633,-4.819642 7.67631,-7.420972 c 0.66142,-0.64191 1.31751,-1.289139 1.9807,-1.931049 q 2.36727,-2.292788 4.7363,-4.587349 c 0.33869,-0.328048 0.30145,-0.462813 -0.14008,-0.606445 -0.039,-0.01241 -0.0816,-0.0195 -0.12235,-0.03192 l -13.08822,-3.87451 q -7.44757,-2.19526 -14.895149,-4.402933 a 1.9505543,1.9505543 0 0 0 -1.321058,0.05497 q -6.481159,2.519762 -12.969412,5.023564 -7.99018,3.094288 -15.983906,6.186803 c -0.787314,0.304996 -0.886615,0.177324 -0.886615,1.276727 0.04788,6.52549 0.02483,13.049208 0.06029,19.574698 0.05674,11.09157 0.01596,22.1849 0.01773,33.27824 0,0.17732 0.01596,0.36706 0.02483,0.55147 z M 4.0476984,64.374565 8.6137686,63.025136 20.39689,59.538963 c 2.975482,-0.886615 5.950964,-1.760818 8.933538,-2.624382 a 1.6668373,1.6668373 0 0 0 1.117136,-0.946905 c 0.601125,-1.241262 1.241262,-2.455925 1.861893,-3.683001 l 6.30561,-12.444536 6.287877,-12.412618 q 3.535823,-6.981211 7.066326,-13.967742 1.39376,-2.753828 2.791066,-5.4970164 0.317409,-0.6277238 0.625951,-1.2572208 c 0.04965,-0.1010742 0.09753,-0.2234272 -0.03369,-0.2996761 -0.131219,-0.076249 -0.187962,0.019505 -0.264211,0.083342 a 0.85647064,0.85647064 0 0 0 -0.08866,0.090435 q -2.094186,2.3513045 -4.186598,4.7008353 -2.377903,2.659847 -4.762899,5.319693 -1.913317,2.142064 -3.82486,4.282354 -2.326479,2.610196 -4.645865,5.222165 -1.925729,2.159796 -3.855005,4.312498 -2.3052,2.588918 -4.610401,5.176062 -2.278602,2.553453 -4.564297,5.105133 l -4.814322,5.394169 -3.798262,4.255754 -4.730981,5.298415 Q 9.6209678,57.419952 8.0286063,59.193183 5.985844,61.475332 3.9501746,63.759254 c -0.1134867,0.125899 -0.2181074,0.262438 -0.3209548,0.397203 a 0.19150896,0.19150896 0 0 0 -0.047877,0.195056 c 0.042558,0.09043 0.1329923,0.09575 0.2393862,0.09221 0.04965,-0.0266 0.1400852,-0.03724 0.2269736,-0.06916 z M 123.52979,64.362152 a 0.19328219,0.19328219 0 0 0 -0.0248,-0.23584 2.14029,2.14029 0 0 0 -0.17733,-0.234066 q -1.20225,-1.349429 -2.40982,-2.693538 -1.93105,-2.158022 -3.85855,-4.310725 -2.64921,-2.968389 -5.2931,-5.938551 -1.98069,-2.221859 -3.97203,-4.433078 -2.63325,-2.948883 -5.26295,-5.906633 Q 99.851851,37.61296 97.170725,34.617973 94.156232,31.239968 91.14174,27.856643 88.453501,24.852789 85.770602,21.861348 82.424515,18.12515 79.090841,14.367673 75.932716,10.821211 72.772818,7.290708 72.418172,6.8935043 72.054659,6.5069399 c -0.06916,-0.072702 -0.16491,-0.1329924 -0.262438,-0.056743 a 0.20569481,0.20569481 0 0 0 -0.03192,0.2393862 2.5463599,2.5463599 0 0 0 0.138312,0.3103154 c 0.136539,0.2642115 0.281944,0.5231032 0.416709,0.7890879 q 2.955977,5.8215176 5.90486,11.6483546 3.202456,6.318023 6.401365,12.637819 3.181176,6.279011 6.364126,12.559796 2.851356,5.638875 5.684979,11.283069 a 1.8246548,1.8246548 0 0 0 1.214664,1.019608 c 3.014494,0.870657 6.009484,1.773232 9.013344,2.659847 l 16.14704,4.768219 0.21811,0.06206 c 0.12235,0.01419 0.20392,0.01064 0.26066,-0.06561 z"
     id="path1"
     style="stroke-width:0.177323;fill:#ffffff;fill-opacity:1" />
</svg>
