<?xml version="1.0" encoding="UTF-8" standalone="no"?>
<svg
   id="D10"
   viewBox="0 0 128 128"
   version="1.1"
   sodipodi:docname="D100.svg"
   width="128"
   height="128"
   inkscape:export-filename="D100.png"
   inkscape:export-xdpi="96"
   inkscape:export-ydpi="96"
   inkscape:version="1.3.2 (091e20e, 2023-11-25, custom)"
   xmlns:inkscape="http://www.inkscape.org/namespaces/inkscape"
   xmlns:sodipodi="http://sodipodi.sourceforge.net/DTD/sodipodi-0.dtd"
   xmlns="http://www.w3.org/2000/svg"
   xmlns:svg="http://www.w3.org/2000/svg">
  <defs
     id="defs1" />
  <sodipodi:namedview
     id="namedview1"
     pagecolor="#ac0000"
     bordercolor="#000000"
     borderopacity="0.25"
     inkscape:showpageshadow="2"
     inkscape:pageopacity="0.0"
     inkscape:pagecheckerboard="0"
     inkscape:deskcolor="#d1d1d1"
     inkscape:export-bgcolor="#000000ff"
     inkscape:zoom="6.5692205"
     inkscape:cx="32.347826"
     inkscape:cy="82.125421"
     inkscape:window-width="2560"
     inkscape:window-height="1369"
     inkscape:window-x="-8"
     inkscape:window-y="-8"
     inkscape:window-maximized="1"
     inkscape:current-layer="D10" />
  <path
     d="m 39.476816,3.5011764 a 3.6098641,3.6098641 0 0 0 0.255793,0.5588406 q 1.768977,3.4978906 3.5359,6.995781 1.849105,3.662255 3.708483,7.322456 l 3.67561,7.255683 q 1.815205,3.584182 3.631437,7.167337 0.896816,1.771032 1.800823,3.5359 a 1.2163003,1.2163003 0 0 1 0.05136,0.111973 c 0.05958,0.164365 0.04007,0.22292 -0.114028,0.296884 -0.102728,0.04931 -0.21162,0.08835 -0.319484,0.129438 l -10.409435,4.02694 c -1.876842,0.72526 -3.755738,1.446411 -5.629498,2.178862 a 0.84442467,0.84442467 0 0 1 -0.661568,-0.01438 Q 35.671769,41.771488 32.33927,40.48636 l -9.330789,-3.607809 c -0.102729,-0.04109 -0.21573,-0.08013 -0.319485,-0.130465 -0.148956,-0.07191 -0.17361,-0.140737 -0.119164,-0.297911 a 1.1392542,1.1392542 0 0 1 0.06266,-0.134574 q 0.972835,-1.925124 1.945669,-3.849221 1.980597,-3.914966 3.962221,-7.828905 0.890653,-1.759732 1.783359,-3.517409 1.892251,-3.738274 3.78553,-7.476548 L 37.576347,6.8069654 39.028921,3.9500981 A 2.7880396,2.7880396 0 0 0 39.234377,3.5011764 Z M 3.4922038,43.688394 l 2.2507718,2.174753 4.4830524,4.33307 q 1.363201,1.319028 2.729484,2.636002 2.303164,2.226117 4.605299,4.455316 1.364229,1.316974 2.729485,2.636002 1.568657,1.514214 3.13526,3.032538 l 2.800367,2.705856 2.992469,2.893849 2.888713,2.792147 2.979114,2.876387 2.532246,2.450061 c 0.06472,0.06267 0.123274,0.132521 0.184911,0.198269 h 0.196211 a 2.7849577,2.7849577 0 0 0 0.04622,-0.539325 q 0,-7.802196 0.0062,-15.604394 0,-7.346084 0,-14.690113 c 0,-0.0904 0,-0.180801 0,-0.271202 -0.0062,-0.341058 -0.04931,-0.398585 -0.372903,-0.523913 q -4.930944,-1.904578 -9.861891,-3.811211 -3.4681,-1.342656 -6.936199,-2.689421 a 1.5090753,1.5090753 0 0 0 -1.010844,-0.04315 q -2.454173,0.733478 -4.910402,1.462847 -5.3963038,1.596394 -10.7946634,3.190734 A 3.0951965,3.0951965 0 0 0 3.4912085,43.585664 Z M 40.906791,76.869562 c 0.06575,-0.07191 0.129437,-0.148957 0.205456,-0.216755 0.266065,-0.255796 0.53624,-0.513643 0.802306,-0.765326 q 1.409429,-1.359095 2.817831,-2.722292 l 4.501543,-4.351563 2.852758,-2.757219 4.520035,-4.369024 2.76544,-2.670935 4.465591,-4.314579 2.888715,-2.792148 4.447093,-4.29917 c 0.383179,-0.371875 0.76327,-0.746833 1.147473,-1.118708 q 1.371424,-1.328274 2.743867,-2.657575 c 0.196212,-0.190047 0.174638,-0.26812 -0.08115,-0.35133 -0.02259,-0.0072 -0.04727,-0.0113 -0.07088,-0.01849 L 67.33051,41.219839 q -4.314578,-1.271773 -8.629161,-2.550737 a 1.1300087,1.1300087 0 0 0 -0.765325,0.03184 q -3.75471,1.459766 -7.51353,2.910286 -4.628927,1.792605 -9.259908,3.584182 c -0.456112,0.176693 -0.51364,0.102729 -0.51364,0.739643 0.02774,3.780392 0.01438,7.559758 0.03493,11.34015 0.03287,6.425646 0.0092,12.852311 0.01027,19.278982 0,0.102726 0.0092,0.212648 0.01439,0.319481 z M 4.8718417,40.530533 7.5170893,39.748773 14.343368,37.729139 c 1.723777,-0.51364 3.447554,-1.02009 5.17544,-1.520376 a 0.9656438,0.9656438 0 0 0 0.647187,-0.548567 c 0.348248,-0.719097 0.719096,-1.422784 1.078645,-2.133662 l 3.65301,-7.209455 3.642736,-7.190965 Q 30.588784,15.081711 32.6341,11.034225 33.441542,9.4388582 34.251039,7.8496552 34.434923,7.4859979 34.61367,7.1213133 c 0.02876,-0.058555 0.0565,-0.1294374 -0.01952,-0.1736104 -0.07602,-0.044173 -0.108891,0.0113 -0.153064,0.048282 a 0.49617654,0.49617654 0 0 0 -0.05136,0.052392 q -1.213218,1.3621741 -2.425409,2.7233206 -1.377583,1.5409215 -2.759276,3.0818415 -1.108436,1.240955 -2.215844,2.480883 -1.347792,1.512157 -2.691475,3.025341 -1.115627,1.251228 -2.233308,2.498346 -1.335465,1.49983 -2.67093,2.998632 -1.320055,1.479285 -2.64422,2.957542 l -2.789067,3.124987 -2.200435,2.465473 -2.7407845,3.069515 Q 8.1005889,36.501539 7.178091,37.528819 5.9946637,38.85093 4.8153455,40.174067 c -0.065746,0.07294 -0.1263555,0.152038 -0.1859378,0.230111 a 0.1109463,0.1109463 0 0 0 -0.027736,0.113001 c 0.024655,0.05239 0.077046,0.05547 0.1386829,0.05342 0.028764,-0.01541 0.081155,-0.02157 0.1314919,-0.04007 z m 69.2191973,-0.0072 a 0.11197358,0.11197358 0 0 0 -0.01437,-0.136628 1.2399277,1.2399277 0 0 0 -0.102732,-0.135601 Q 73.277443,39.469352 72.577865,38.690674 71.459156,37.440473 70.342503,36.193355 68.807745,34.473687 67.276068,32.752992 66.128601,31.465809 64.974964,30.18479 63.449451,28.476423 61.925995,26.762918 60.37377,25.026814 58.820521,23.291737 57.074144,21.334768 55.327768,19.374716 53.770398,17.634503 52.216123,15.90148 50.277644,13.737 48.346357,11.560193 46.51677,9.5056315 44.686156,7.4603159 44.4807,7.2302051 44.270107,7.0062579 c -0.04007,-0.042118 -0.09554,-0.077046 -0.152037,-0.032873 a 0.11916455,0.11916455 0 0 0 -0.01849,0.1386829 1.475175,1.475175 0 0 0 0.08013,0.1797741 c 0.0791,0.1530648 0.163338,0.3030478 0.241411,0.4571399 q 1.712477,3.3725622 3.420845,6.7482062 1.855269,3.660201 3.708483,7.321429 1.842941,3.6376 3.68691,7.276229 1.651867,3.266752 3.293462,6.536586 a 1.0570717,1.0570717 0 0 0 0.703687,0.590686 c 1.746378,0.504395 3.481456,1.027281 5.221673,1.540921 l 9.354416,2.762358 0.126357,0.03595 c 0.07088,0.0082 0.118136,0.0062 0.151007,-0.03801 z"
     id="path1"
     style="fill:#ffffff;fill-opacity:1;stroke-width:0.102728" />
  <path
     d="m 88.797736,50.538721 a 3.6098641,3.6098641 0 0 0 0.255793,0.558841 q 1.768977,3.49789 3.5359,6.995781 1.849105,3.662255 3.708483,7.322456 l 3.67561,7.255683 q 1.815208,3.584182 3.631438,7.167337 0.89681,1.771032 1.80082,3.5359 a 1.2163003,1.2163003 0 0 1 0.0514,0.111973 c 0.0596,0.164365 0.0401,0.22292 -0.11403,0.296884 -0.10272,0.04931 -0.21162,0.08835 -0.31948,0.129438 l -10.409435,4.02694 c -1.876842,0.72526 -3.755738,1.446411 -5.629498,2.178862 a 0.84442467,0.84442467 0 0 1 -0.661568,-0.01438 q -3.33048,-1.295403 -6.662979,-2.580531 l -9.330789,-3.607809 c -0.102729,-0.04109 -0.21573,-0.08013 -0.319485,-0.130465 -0.148956,-0.07191 -0.17361,-0.140737 -0.119164,-0.297911 a 1.1392542,1.1392542 0 0 1 0.06266,-0.134574 q 0.972835,-1.925124 1.945669,-3.849221 1.980597,-3.914966 3.962221,-7.828905 0.890653,-1.759732 1.783359,-3.517409 1.892251,-3.738274 3.78553,-7.476548 l 3.467076,-6.836553 1.452574,-2.856867 a 2.7880396,2.7880396 0 0 0 0.205456,-0.448922 z m -35.984612,40.187218 2.250771,2.174753 4.483053,4.33307 q 1.363201,1.319028 2.729484,2.636002 2.303164,2.226116 4.605299,4.455316 1.364229,1.31697 2.729485,2.636 1.568657,1.51421 3.13526,3.03254 l 2.800367,2.70585 2.992469,2.89385 2.888713,2.79215 2.979114,2.87639 2.532246,2.45006 c 0.06472,0.0627 0.123274,0.13252 0.184911,0.19827 h 0.196211 a 2.7849577,2.7849577 0 0 0 0.04622,-0.53933 q 0,-7.8022 0.0062,-15.60439 0,-7.34608 0,-14.690113 c 0,-0.0904 0,-0.180801 0,-0.271202 -0.0062,-0.341058 -0.04931,-0.398585 -0.372903,-0.523913 Q 82.06908,90.376664 77.138133,88.470031 73.670033,87.127375 70.201934,85.78061 A 1.5090753,1.5090753 0 0 0 69.19109,85.73746 q -2.454173,0.733478 -4.910402,1.462847 -5.396304,1.596394 -10.794664,3.190734 a 3.0951965,3.0951965 0 0 0 -0.673896,0.232168 z M 90.227711,123.9071 c 0.06575,-0.0719 0.129437,-0.14895 0.205456,-0.21675 0.266065,-0.2558 0.53624,-0.51364 0.802306,-0.76533 q 1.409429,-1.35909 2.817831,-2.72229 l 4.501543,-4.35156 2.852763,-2.75722 4.52003,-4.36903 2.76544,-2.67093 4.46559,-4.31458 2.88872,-2.792144 4.44709,-4.29917 c 0.38318,-0.371875 0.76327,-0.746833 1.14747,-1.118708 q 1.37143,-1.328274 2.74387,-2.657575 c 0.19621,-0.190047 0.17464,-0.26812 -0.0811,-0.35133 -0.0226,-0.0072 -0.0473,-0.0113 -0.0709,-0.01849 l -7.58236,-2.244609 q -4.31458,-1.271773 -8.62916,-2.550737 a 1.1300087,1.1300087 0 0 0 -0.76533,0.03184 q -3.75471,1.459766 -7.513526,2.910286 -4.628927,1.792605 -9.259908,3.584182 c -0.456112,0.176693 -0.51364,0.102729 -0.51364,0.739643 0.02774,3.780392 0.01438,7.559762 0.03493,11.340152 0.03287,6.42564 0.0092,12.85231 0.01027,19.27898 0,0.10272 0.0092,0.21264 0.01439,0.31948 z m -36.03495,-36.339022 2.645248,-0.78176 6.826279,-2.019634 c 1.723777,-0.51364 3.447554,-1.02009 5.17544,-1.520376 a 0.9656438,0.9656438 0 0 0 0.647187,-0.548567 c 0.348248,-0.719097 0.719096,-1.422784 1.078645,-2.133662 l 3.65301,-7.209455 3.642736,-7.190965 q 2.048398,-4.044403 4.093714,-8.091889 0.807442,-1.595367 1.616939,-3.18457 0.183884,-0.363658 0.362631,-0.728342 c 0.02876,-0.05855 0.0565,-0.129438 -0.01952,-0.173611 -0.07602,-0.04417 -0.108891,0.0113 -0.153064,0.04828 a 0.49617654,0.49617654 0 0 0 -0.05136,0.05239 q -1.213218,1.362175 -2.425409,2.723321 -1.377583,1.540922 -2.759276,3.081842 -1.108436,1.240955 -2.215844,2.480883 -1.347792,1.512157 -2.691475,3.025341 -1.115627,1.251228 -2.233308,2.498346 -1.335465,1.49983 -2.67093,2.998632 -1.320055,1.479285 -2.64422,2.957542 l -2.789067,3.124987 -2.200435,2.465473 -2.740785,3.069515 q -0.918388,1.027281 -1.840886,2.054561 -1.183428,1.322111 -2.362746,2.645248 c -0.06575,0.07294 -0.126355,0.152038 -0.185938,0.230111 a 0.1109463,0.1109463 0 0 0 -0.02774,0.113001 c 0.02466,0.05239 0.07705,0.05547 0.138683,0.05342 0.02876,-0.01541 0.08116,-0.02157 0.131492,-0.04007 z m 69.219199,-0.0072 a 0.11197358,0.11197358 0 0 0 -0.0144,-0.136628 1.2399277,1.2399277 0 0 0 -0.10273,-0.135601 q -0.6965,-0.781752 -1.39608,-1.56043 -1.1187,-1.250201 -2.23536,-2.497319 -1.53476,-1.719668 -3.06643,-3.440363 -1.14747,-1.287183 -2.30111,-2.568202 -1.52551,-1.708367 -3.04897,-3.421872 -1.55222,-1.736104 -3.10547,-3.471181 -1.74638,-1.956969 -3.49275,-3.917021 -1.55737,-1.740213 -3.11165,-3.473236 -1.938476,-2.16448 -3.869763,-4.341287 Q 95.83766,56.543176 94.007046,54.49786 93.80159,54.26775 93.590997,54.043802 c -0.04007,-0.04212 -0.09554,-0.07705 -0.152037,-0.03287 a 0.11916455,0.11916455 0 0 0 -0.01849,0.138683 1.475175,1.475175 0 0 0 0.08013,0.179774 c 0.0791,0.153065 0.163338,0.303048 0.241411,0.45714 q 1.712477,3.372563 3.420845,6.748207 1.855269,3.660201 3.708484,7.321429 1.84294,3.6376 3.68691,7.276229 1.65187,3.266752 3.29346,6.536586 a 1.0570717,1.0570717 0 0 0 0.70369,0.590686 c 1.74638,0.504395 3.48145,1.027281 5.22167,1.540921 l 9.35442,2.762358 0.12635,0.03595 c 0.0709,0.0082 0.11814,0.0062 0.15101,-0.03801 z"
     id="path2"
     style="fill:#ffffff;fill-opacity:1;stroke-width:0.102728" />
</svg>
