<?xml version="1.0" encoding="UTF-8" standalone="no"?>
<svg
   id="D12"
   viewBox="0 0 128 128"
   version="1.1"
   sodipodi:docname="D12.svg"
   width="128"
   height="128"
   inkscape:export-filename="D12.png"
   inkscape:export-xdpi="96"
   inkscape:export-ydpi="96"
   inkscape:version="1.3.2 (091e20e, 2023-11-25, custom)"
   xmlns:inkscape="http://www.inkscape.org/namespaces/inkscape"
   xmlns:sodipodi="http://sodipodi.sourceforge.net/DTD/sodipodi-0.dtd"
   xmlns="http://www.w3.org/2000/svg"
   xmlns:svg="http://www.w3.org/2000/svg">
  <defs
     id="defs1" />
  <sodipodi:namedview
     id="namedview1"
     pagecolor="#9b0000"
     bordercolor="#000000"
     borderopacity="0.25"
     inkscape:showpageshadow="2"
     inkscape:pageopacity="0.0"
     inkscape:pagecheckerboard="0"
     inkscape:deskcolor="#d1d1d1"
     inkscape:export-bgcolor="#000000ff"
     inkscape:zoom="6.8201637"
     inkscape:cx="69.133238"
     inkscape:cy="74.411703"
     inkscape:window-width="2560"
     inkscape:window-height="1369"
     inkscape:window-x="-8"
     inkscape:window-y="-8"
     inkscape:window-maximized="1"
     inkscape:current-layer="D12" />
  <path
     d="M 66.300994,43.225158 V 23.894259 c 0,-0.789496 0,-0.794916 0.758783,-0.961125 q 6.025098,-1.322451 12.050196,-2.637674 5.557182,-1.219473 11.11617,-2.446172 l 13.607517,-2.98816 c 0.46069,-0.101171 0.46611,-0.09936 0.72264,0.314353 q 2.96287,4.818272 5.92031,9.63835 l 8.75853,14.252473 q 3.53918,5.76133 7.07475,11.522661 c 0.0163,0.02349 0.0289,0.04878 0.0434,0.07407 0.23125,0.386618 0.23125,0.386618 -0.0704,0.697358 -0.24029,0.249314 -0.48237,0.498628 -0.72265,0.74975 q -2.05594,2.135431 -4.10827,4.27809 -2.72439,2.850856 -5.44517,5.705325 l -3.56086,3.732489 q -2.7244,2.852663 -5.44517,5.705325 -2.66478,2.791238 -5.32593,5.582475 -2.016206,2.119172 -4.02517,4.245571 c -0.314353,0.330613 -0.336033,0.337839 -0.769623,0.07949 Q 92.74459,78.983704 88.609223,76.521273 l -20.671425,-12.2977 c -0.448044,-0.265574 -0.892474,-0.541989 -1.34413,-0.791303 a 0.52753481,0.52753481 0 0 1 -0.303514,-0.527535 c 0.0091,-0.130077 0,-0.260154 0,-0.390232 q 0,-9.643769 0,-19.287539 z m -4.753233,-0.02349 V 23.961104 c 0,-0.14453 0,-0.28906 0,-0.433591 -0.0091,-0.397457 -0.04336,-0.442623 -0.420944,-0.527535 -0.44985,-0.09936 -0.903313,-0.180662 -1.354969,-0.287253 L 43.710942,19.180772 q -5.578861,-1.2267 -11.157722,-2.446173 -4.227505,-0.930412 -8.44959,-1.871664 c -0.541989,-0.117431 -0.541989,-0.115624 -0.802142,0.317966 q -3.734297,6.073877 -7.463172,12.145947 L 5.83864,43.611775 q -2.1679513,3.526534 -4.3359026,7.045842 c -0.222215,0.361326 -0.2149885,0.361326 0.066845,0.663031 l 3.3494848,3.512082 5.058553,5.297027 c 0.9484788,0.991839 1.9023778,1.987289 2.8490488,2.973708 q 2.092074,2.195049 4.178727,4.395521 c 0.997257,1.046035 2.003548,2.081232 3.000805,3.127269 q 2.914089,3.058618 5.820949,6.124462 1.747008,1.837339 3.499435,3.669258 c 0.308933,0.323386 0.619673,0.646772 0.934026,0.966545 0.287254,0.290867 0.290866,0.28906 0.659419,0.07587 l 0.14995,-0.08672 q 5.16153,-3.071264 10.32306,-6.129882 l 15.75378,-9.374575 c 1.342324,-0.798528 2.679226,-1.600671 4.025163,-2.390166 0.267381,-0.15537 0.417331,-0.336033 0.379392,-0.653999 a 3.1381095,3.1381095 0 0 1 0,-0.345065 V 43.203478 Z m 23.697515,83.104792 c 0.69013,0 0.650385,0.0723 0.812981,-0.65761 q 2.059553,-9.16862 4.113688,-18.33906 l 3.663837,-16.353572 q 0.531148,-2.366681 1.069523,-4.731554 c 0.12285,-0.541988 0.12285,-0.541988 -0.375779,-0.847309 L 92.63257,84.235569 76.280797,74.510501 Q 70.318931,70.9659 64.366098,67.414074 a 0.73529681,0.73529681 0 0 0 -0.865374,0 q -5.262702,3.148949 -10.539856,6.272605 l -16.639027,9.907538 q -1.562731,0.932219 -3.125463,1.866245 c -0.317965,0.191502 -0.330612,0.234861 -0.258347,0.597992 0.01084,0.05781 0.0271,0.113819 0.03974,0.169824 q 1.64945,7.351161 3.300707,14.704122 1.663902,7.40717 3.324191,14.8324 c 0.73349,3.26819 1.476014,6.53276 2.205891,9.80275 0.191502,0.85634 0.13369,0.72266 0.917766,0.72266 q 10.601281,0 21.198951,0 z M 127.07228,57.145211 c -0.34145,0.352292 -0.67387,0.713617 -1.01351,1.069523 q -2.67381,2.807497 -5.35304,5.60596 l -5.41987,5.674613 -5.34943,5.616801 -5.41987,5.674612 q -2.27454,2.379326 -4.556316,4.75504 a 1.4850466,1.4850466 0 0 0 -0.399259,0.747943 c -0.251128,1.15624 -0.514897,2.308868 -0.775048,3.465109 l -4.155239,18.548628 -3.044165,13.56414 c -0.09576,0.42275 -0.180663,0.84731 -0.278221,1.26464 -0.01626,0.0704 -0.03432,0.14453 0.04698,0.18066 a 0.15175659,0.15175659 0 0 0 0.160789,-0.0343 c 0.229442,-0.15176 0.457077,-0.30352 0.682905,-0.46069 l 11.329344,-7.8245 3.84812,-2.66478 a 1.318837,1.318837 0 0 0 0.41552,-0.43178 q 1.30077,-2.27634 2.61239,-4.54366 2.61599,-4.54728 5.22475,-9.090936 2.89061,-5.015195 5.76856,-10.028582 2.9177,-5.071199 5.83721,-10.138786 a 2.1679513,2.1679513 0 0 0 0.31074,-1.143594 c -0.0217,-6.543599 0,-13.087199 -0.0921,-19.630798 a 0.72265042,0.72265042 0 0 0 -0.0578,-0.399265 c -0.17524,0.0054 -0.23847,0.133691 -0.32339,0.224022 z M 0.29229792,77.07049 a 1.5482786,1.5482786 0 0 0 0.22040837,0.822015 C 1.518997,79.630479 2.514448,81.373873 3.5153188,83.113654 l 9.2697982,16.116911 q 3.613253,6.292465 7.237344,12.584955 a 1.5464719,1.5464719 0 0 0 0.485982,0.54198 c 0.551022,0.37217 1.094816,0.75337 1.642224,1.13095 l 7.66732,5.29341 q 3.13811,2.16796 6.278026,4.3359 c 0.124657,0.0867 0.261961,0.27101 0.406491,0.18067 0.14453,-0.0904 0.03252,-0.28906 0,-0.43359 q -1.47782,-6.61406 -2.96106,-13.22992 -2.07762,-9.27702 -4.15524,-18.550432 l -1.083975,-4.859823 a 1.0279702,1.0279702 0 0 0 -0.249315,-0.541988 c -0.29448,-0.298094 -0.572701,-0.61064 -0.861761,-0.914153 Q 25.6772,83.187726 24.159635,81.610541 C 22.764919,80.147174 21.375624,78.67658 19.979102,77.213214 18.972811,76.158144 17.957488,75.110301 16.951197,74.053425 Q 14.886223,71.885473 12.830282,69.717522 C 11.813152,68.651613 10.786989,67.594736 9.7698583,66.528828 Q 6.8575771,63.468402 3.9471024,60.404365 C 2.8848063,59.316776 1.8297367,58.220154 0.7764737,57.136179 0.69156227,57.04946 0.62833036,56.868798 0.48560691,56.922997 c -0.14272347,0.0542 -0.0849114,0.25112 -0.10478432,0.386618 a 0.34687221,0.34687221 0 0 0 0,0.04336 c -0.0397458,5.750491 0.0415524,11.500982 -0.0849114,17.249666 0,0.822014 0.00542,1.645836 -0.003613,2.467851 z M 29.411497,11.343627 44.41914,14.64072 l 11.327544,2.494951 7.779333,1.718101 a 1.806626,1.806626 0 0 0 0.773236,0.0091 L 77.36116,15.972234 86.574952,13.941587 98.453519,11.334624 A 0.63593237,0.63593237 0 0 0 98.836526,11.166578 0.8039486,0.8039486 0 0 0 98.475198,10.90281 Q 96.46623,9.8332879 94.457262,8.7673781 88.354478,5.5154512 82.253503,2.2725575 A 2.2799621,2.2799621 0 0 0 81.137008,2.0087901 q -17.213533,0 -34.427067,0 c -0.08672,0 -0.180663,0 -0.260154,0 A 1.1995997,1.1995997 0 0 0 45.790368,2.1768063 Q 42.196989,4.0990564 38.59819,6.0068535 34.045492,8.4277324 29.487375,10.843192 a 1.0641028,1.0641028 0 0 0 -0.448043,0.328806 0.78588234,0.78588234 0 0 0 0.372165,0.171629 z"
     id="path1"
     style="fill:#ffffff;fill-opacity:1;stroke-width:0.180663" />
</svg>
