<?xml version="1.0" encoding="UTF-8" standalone="no"?>
<svg
   id="Layer_1"
   data-name="Layer 1"
   viewBox="0 0 128 128"
   version="1.1"
   sodipodi:docname="D20.svg"
   width="128"
   height="128"
   inkscape:export-filename="D20.png"
   inkscape:export-xdpi="96"
   inkscape:export-ydpi="96"
   inkscape:version="1.3.2 (091e20e, 2023-11-25, custom)"
   xmlns:inkscape="http://www.inkscape.org/namespaces/inkscape"
   xmlns:sodipodi="http://sodipodi.sourceforge.net/DTD/sodipodi-0.dtd"
   xmlns="http://www.w3.org/2000/svg"
   xmlns:svg="http://www.w3.org/2000/svg">
  <defs
     id="defs1" />
  <sodipodi:namedview
     id="namedview1"
     pagecolor="#8b0303"
     bordercolor="#000000"
     borderopacity="0.25"
     inkscape:showpageshadow="2"
     inkscape:pageopacity="0.0"
     inkscape:pagecheckerboard="0"
     inkscape:deskcolor="#d1d1d1"
     inkscape:export-bgcolor="#000000ff"
     inkscape:zoom="6.4727954"
     inkscape:cx="75.778696"
     inkscape:cy="88.756088"
     inkscape:window-width="2560"
     inkscape:window-height="1369"
     inkscape:window-x="-8"
     inkscape:window-y="-8"
     inkscape:window-maximized="1"
     inkscape:current-layer="Layer_1" />
  <path
     d="m 44.61461,43.408903 c 4.031961,0 8.063923,0.04694 12.095884,-0.01217 q 6.358293,-0.09389 12.718326,-0.02782 c 8.564657,0.08346 17.129315,0.03303 25.692234,0.06607 a 4.8021894,4.8021894 0 0 1 0.500735,0.01391 c 0.227765,0.02782 0.274709,0.09736 0.173867,0.304266 -0.227765,0.446837 -0.471178,0.883242 -0.712852,1.321385 q -2.442823,4.442286 -4.887384,8.879356 -2.566268,4.65788 -5.132536,9.314022 -2.175068,3.945028 -4.346659,7.893533 l -4.769155,8.658546 q -1.900359,3.452986 -3.79898,6.905972 -2.856625,5.189912 -5.714988,10.376346 -1.197939,2.171591 -2.392401,4.346651 c -0.02782,0.0487 -0.05042,0.0991 -0.07998,0.14605 -0.173866,0.28862 -0.243413,0.29036 -0.410325,-0.0156 Q 62.178592,99.096565 60.812002,96.612015 L 55.596011,87.150206 Q 53.68348,83.672879 51.77095,80.205983 49.126443,75.402055 46.478458,70.598127 44.087795,66.251468 41.695394,61.904808 39.33255,57.612047 36.96449,53.322764 l -4.763939,-8.662023 c -0.159957,-0.292096 -0.326869,-0.582453 -0.476394,-0.879764 -0.123445,-0.248629 -0.07998,-0.312959 0.201685,-0.335562 0.123445,-0.01043 0.250367,0 0.375551,0 h 12.304524 z m 23.346777,61.517397 4.90651,-0.71111 q 2.434129,-0.34774 4.868258,-0.69547 2.721009,-0.39294 5.440279,-0.79457 c 1.636083,-0.23646 3.272165,-0.4677 4.908248,-0.7059 1.813426,-0.26253 3.626853,-0.53203 5.442018,-0.79456 1.815165,-0.26254 3.651194,-0.5216 5.483745,-0.78762 1.832555,-0.26601 3.626855,-0.533765 5.442015,-0.796303 2.02033,-0.293834 4.04066,-0.578975 6.06098,-0.869332 q 2.80621,-0.40337 5.60719,-0.813695 c 0.50943,-0.07476 1.01712,-0.147786 1.52481,-0.234719 0.32339,-0.0539 0.34773,-0.0991 0.24168,-0.415541 -0.0122,-0.03999 -0.0296,-0.07824 -0.0435,-0.11649 q -0.93888,-2.587132 -1.87602,-5.176002 L 110.95506,78.164792 Q 107.90545,69.749659 104.85931,61.34322 102.23914,54.101685 99.6155,46.87406 c -0.04868,-0.135616 -0.0452,-0.347733 -0.222549,-0.361642 -0.177344,-0.01391 -0.205162,0.203423 -0.276447,0.332085 -0.84673,1.53524 -1.686504,3.072218 -2.531495,4.60572 q -2.566268,4.661358 -5.134274,9.31576 -2.442823,4.438809 -4.882168,8.882834 -3.218267,5.847126 -6.443488,11.690775 -2.644507,4.803928 -5.285538,9.613072 -3.729434,6.780789 -7.465822,13.561576 a 2.4341293,2.4341293 0 0 0 -0.133877,0.25906 c -0.0765,0.18951 -0.03303,0.24167 0.196469,0.2295 z m -7.684894,0.0226 c 0.07998,-0.10779 -0.01912,-0.21037 -0.06433,-0.30774 -0.0452,-0.0974 -0.102581,-0.19647 -0.15648,-0.29383 q -1.02755,-1.86211 -2.0551,-3.72422 L 53.699128,92.799125 48.429238,83.227781 43.684425,74.604008 38.91527,65.947202 34.170457,57.323429 Q 31.778055,52.97677 29.382177,48.63011 c -0.356426,-0.645044 -0.709375,-1.291827 -1.064062,-1.936871 -0.04521,-0.08346 -0.07998,-0.194731 -0.192992,-0.194731 -0.113013,0 -0.140832,0.123446 -0.173867,0.20864 -0.113013,0.29905 -0.213855,0.601578 -0.323391,0.902367 L 22.912609,60.62689 19.29445,70.625946 q -2.357629,6.507818 -4.718734,13.015637 l -3.364314,9.291419 c -0.511167,1.411795 -1.025812,2.82359 -1.5335016,4.235385 -0.1738663,0.460746 -0.149525,0.492042 0.3199142,0.568543 0.8223884,0.132139 1.6465144,0.252106 2.4706414,0.370335 q 3.896345,0.561589 7.794429,1.117961 c 2.404572,0.347733 4.807406,0.705898 7.211978,1.053634 2.213319,0.32165 4.426638,0.63113 6.638218,0.95104 2.062055,0.29731 4.122372,0.60332 6.182688,0.90237 1.787347,0.2608 3.574693,0.5216 5.360301,0.77196 l 6.678207,0.9754 q 2.202887,0.32339 4.409252,0.64156 l 3.202618,0.46075 c 0.123445,-0.005 0.250368,0.0748 0.330346,-0.033 z M 82.962578,39.043118 h 11.475181 c 0.139094,0 0.278187,0 0.415541,-0.01217 0.137355,-0.01217 0.173866,-0.09215 0.100843,-0.201685 A 3.7329111,3.7329111 0 0 0 94.679434,38.462404 C 94.239552,37.923419 93.796192,37.38791 93.356311,36.850663 L 84.005777,25.427642 71.824698,10.551635 64.139804,1.1628502 A 2.8966139,2.8966139 0 0 0 63.946813,0.94377854 C 63.772946,0.76991217 63.727741,0.76991217 63.54692,0.96290384 63.49998,1.0133251 63.45825,1.070701 63.414782,1.1245996 q -0.951049,1.1649047 -1.902099,2.3193775 -3.950244,4.8230533 -7.902226,9.6461069 -3.22696,3.934596 -6.443488,7.876147 l -8.246483,10.066863 -6.182688,7.551017 a 2.2463536,2.2463536 0 0 0 -0.198208,0.266016 c -0.05216,0.09215 -0.01565,0.173866 0.09041,0.173866 0.153002,0.01391 0.306005,0.01391 0.459007,0.01391 7.950909,-0.0313 15.903558,0.01391 23.854467,-0.06607 q 7.318036,-0.06955 14.63781,0.02434 c 3.795503,0.05216 7.591006,0.01043 11.386509,0.01043 z m 37.085692,50.221303 c 0.0539,-12.210635 -0.0139,-24.421271 0.0765,-36.631907 0.0469,-6.48 0.0243,-12.961738 0.0296,-19.443477 0,-0.173866 0.0869,-0.405108 -0.08,-0.504212 -0.16691,-0.0991 -0.33034,0.09389 -0.47813,0.182559 q -4.12411,2.4463 -8.24474,4.903032 l -8.13695,4.838702 c -0.37729,0.224287 -0.37902,0.236458 -0.23993,0.622441 q 0.54594,1.512638 1.09362,3.020059 2.51932,6.954655 5.04212,13.919742 l 3.97633,10.979662 4.36056,12.038508 q 1.11275,3.077435 2.23245,6.15487 a 1.0849262,1.0849262 0 0 0 0.26601,0.521599 c 0.1617,-0.189514 0.10085,-0.405109 0.10258,-0.601578 z M 7.7792796,89.502618 Q 9.4205782,84.982093 11.0584,80.445919 L 15.460696,68.29092 q 1.975122,-5.447233 3.946767,-10.899683 2.514107,-6.940746 5.029954,-13.879753 C 24.717342,42.73604 24.738206,42.86644 24.049695,42.456115 Q 16.545622,37.986011 9.0311175,33.524599 C 8.5773263,33.253368 8.123535,32.982136 7.6645278,32.721337 7.4454561,32.596153 7.3706936,32.643097 7.3446136,32.895203 a 2.3489348,2.3489348 0 0 0 0,0.332085 c 0.015648,0.765012 0.045205,1.530024 0.046944,2.293297 0.038251,12.417537 -0.02608,24.836812 0.07824,37.254349 0.045205,5.520258 0.013909,11.042254 0.020864,16.562511 a 1.2709632,1.2709632 0 0 0 0.064331,0.589407 0.7823987,0.7823987 0 0 0 0.224287,-0.424234 z M 72.513209,4.4489248 q 2.350674,2.8740112 4.703086,5.7375902 3.461679,4.230169 6.92162,8.4586 l 8.933255,10.906638 q 3.701615,4.520525 7.39801,9.041051 c 0.28862,0.347733 0.2921,0.347733 0.67287,0.125184 q 2.04814,-1.217065 4.08933,-2.434129 6.11314,-3.632069 12.22281,-7.272831 c 0.11475,-0.06781 0.29557,-0.10432 0.30079,-0.259061 0,-0.186037 -0.19647,-0.212117 -0.32339,-0.279925 -1.18403,-0.646783 -2.37154,-1.284872 -3.55731,-1.928178 l -8.54032,-4.624845 Q 101.76101,19.97867 98.18458,18.041798 93.933547,15.732853 89.682514,13.425646 L 81.397781,8.9312 72.634916,4.1776932 c -0.09215,-0.048683 -0.173867,-0.1390931 -0.307744,-0.07824 -0.02956,0.1669118 0.10432,0.2503676 0.186037,0.3494716 z M 54.549335,4.3550369 q -3.703354,2.006418 -7.40323,4.0197907 l -7.331946,3.9745854 -8.390791,4.544867 -7.330206,3.976324 -8.317768,4.520526 q -2.802726,1.521331 -5.60719,3.040923 c -0.5720208,0.309482 -0.5841914,0.306005 0.01217,0.660692 l 8.926299,5.306402 7.238057,4.30667 c 0.408586,0.243413 0.408586,0.239936 0.709375,-0.128661 l 6.954655,-8.484679 8.6655,-10.583246 5.282061,-6.45392 q 3.49993,-4.2753748 6.99986,-8.550749 a 0.64852159,0.64852159 0 0 0 0.23472,-0.42945 1.6621626,1.6621626 0 0 0 -0.641567,0.2799249 z M 108.79564,103.44496 c -1.18055,0.17387 -2.36284,0.34773 -3.54339,0.5216 l -4.90303,0.70937 -4.329277,0.62244 -5.478529,0.78936 -4.904771,0.71285 -4.868258,0.70416 -4.904771,0.71111 -4.897816,0.71807 c -1.457,0.21038 -2.914,0.41902 -4.369262,0.63809 -0.613748,0.0922 -0.613748,0.10258 -0.613748,0.72676 v 15.97658 c 0,0.66591 0.02434,0.67982 0.592884,0.37034 l 6.226155,-3.38866 11.800311,-6.4035 q 6.391328,-3.46341 12.79135,-6.94074 l 11.252632,-6.10097 a 0.91627581,0.91627581 0 0 0 0.4138,-0.30253 0.24167427,0.24167427 0 0 0 -0.25906,-0.0643 z m -90.036699,0.30253 q 1.564797,0.8589 3.150459,1.71084 4.251033,2.30721 8.502066,4.61615 3.592079,1.95079 7.184158,3.89635 l 8.649853,4.69439 6.158347,3.33998 q 4.270158,2.31937 8.538578,4.63527 c 0.558111,0.30253 0.561588,0.29384 0.561588,-0.34773 q 0,-8.01176 0,-16.02005 c 0,-0.0974 0,-0.19473 0,-0.29209 -0.01565,-0.29036 -0.0452,-0.32687 -0.337301,-0.37034 -0.495519,-0.0765 -0.989299,-0.14605 -1.484819,-0.21733 l -4.868258,-0.7059 -4.904771,-0.71111 -4.906509,-0.70938 -4.287545,-0.61722 -5.482007,-0.79805 q -2.434129,-0.34773 -4.868258,-0.69547 -2.708838,-0.40684 -5.429847,-0.80674 c -1.869064,-0.27123 -3.736389,-0.54594 -5.607191,-0.80847 a 3.3590984,3.3590984 0 0 0 -0.895412,-0.0904 c 0.06433,0.20342 0.215595,0.23298 0.332085,0.29731 z M 124.58619,36.059571 v 2.510631 h 0.0348 V 36.043923 Z M 2.9701356,57.163472 v -2.51063 H 2.9353623 V 57.17912 Z M 124.53055,75.793255 v -2.52454 h -0.033 v 2.52454 z M 3.0535915,94.384786 v -2.508892 h -0.034773 v 2.52454 z"
     id="path1"
     style="fill:#ffffff;fill-opacity:1;stroke-width:0.173866" />
</svg>
