<?xml version="1.0" encoding="UTF-8" standalone="no"?>
<svg
   id="D4"
   viewBox="0 0 128 128"
   version="1.1"
   sodipodi:docname="D4.svg"
   width="128"
   height="128"
   inkscape:version="1.3.2 (091e20e, 2023-11-25, custom)"
   inkscape:export-filename="D4.png"
   inkscape:export-xdpi="96"
   inkscape:export-ydpi="96"
   xmlns:inkscape="http://www.inkscape.org/namespaces/inkscape"
   xmlns:sodipodi="http://sodipodi.sourceforge.net/DTD/sodipodi-0.dtd"
   xmlns="http://www.w3.org/2000/svg"
   xmlns:svg="http://www.w3.org/2000/svg">
  <defs
     id="defs1" />
  <sodipodi:namedview
     id="namedview1"
     pagecolor="#a01b1b"
     bordercolor="#000000"
     borderopacity="0.25"
     inkscape:showpageshadow="2"
     inkscape:pageopacity="0.0"
     inkscape:pagecheckerboard="0"
     inkscape:deskcolor="#d9d9d9"
     inkscape:zoom="3.3144957"
     inkscape:cx="62.000382"
     inkscape:cy="136.82323"
     inkscape:window-width="2560"
     inkscape:window-height="1369"
     inkscape:window-x="-8"
     inkscape:window-y="-8"
     inkscape:window-maximized="1"
     inkscape:current-layer="D4"
     showborder="true"
     inkscape:export-bgcolor="#000000ff" />
  <path
     d="m 61.391326,2.1009852 c 0.07152,0.1728627 0.09396,0.3621086 0.06485,0.5469055 v 14.5105253 5.71972 c 0.103426,34.220161 0.03855,68.440315 0.05609,102.662234 0,0.2121 0.112187,0.51359 -0.113934,0.61525 -0.187566,0.0841 -0.359345,-0.17528 -0.525874,-0.29798 -5.486581,-4.22566 -10.971997,-8.45425 -16.456245,-12.68576 -3.596956,-2.77309 -7.195664,-5.54443 -10.796124,-8.31402 L 15.847415,91.148423 1.5875555,80.154217 C 1.1984112,79.852718 1.1949055,79.849213 1.4876402,79.468835 2.5662593,78.066513 3.6454627,76.668276 4.7252506,75.274139 L 11.077768,67.05478 23.477799,51.019229 c 2.538202,-3.28377 5.075237,-6.56754 7.611102,-9.851311 4.140355,-5.360376 8.281879,-10.71666 12.424572,-16.068854 l 8.27896,-10.717246 c 3.094452,-4.003628 6.191251,-8.0072573 9.290379,-12.0108859 0.06756,-0.1237283 0.176909,-0.2194078 0.308514,-0.2699469 z m 4.67674,0.1279618 c -0.0088,0.1752903 -0.01755,0.3348044 -0.01755,0.503083 v 17.788452 c 0,18.391451 -0.003,36.782318 -0.0088,55.1726 V 125.6508 c 0,0.17528 -0.09115,0.40842 0.09465,0.49782 0.185806,0.0894 0.294489,-0.12096 0.422447,-0.21911 L 82.611915,113.55226 99.367907,100.64388 115.15453,88.471742 c 3.58644,-2.763745 7.17229,-5.527492 10.75757,-8.291227 0.47328,-0.364606 0.41719,-0.350589 0.0876,-0.776542 -1.84171,-2.386278 -3.68518,-4.770231 -5.53041,-7.151838 L 104.70203,51.855363 93.283629,37.083656 C 88.024918,30.285901 82.770303,23.487561 77.519778,16.688638 L 66.949775,3.0107415 c -0.196327,-0.2559238 -0.394404,-0.510679 -0.594231,-0.7642654 -0.05084,-0.063105 -0.09992,-0.1367264 -0.191067,-0.143738 -0.05348,0.017221 -0.09011,0.066527 -0.09116,0.1227032 z"
     id="path1"
     style="fill:#ffffff;fill-opacity:0.997354;stroke:#ffffff;stroke-width:0.500057;stroke-opacity:1"
     sodipodi:nodetypes="cccccccccccccccccccccsscssccccccccccccccc" />
</svg>
