<?xml version="1.0" encoding="UTF-8" standalone="no"?>
<svg
   id="D6"
   viewBox="0 0 128 128"
   version="1.1"
   sodipodi:docname="D6.svg"
   width="128"
   height="128"
   inkscape:version="1.3.2 (091e20e, 2023-11-25, custom)"
   inkscape:export-filename="D6.png"
   inkscape:export-xdpi="96"
   inkscape:export-ydpi="96"
   xmlns:inkscape="http://www.inkscape.org/namespaces/inkscape"
   xmlns:sodipodi="http://sodipodi.sourceforge.net/DTD/sodipodi-0.dtd"
   xmlns="http://www.w3.org/2000/svg"
   xmlns:svg="http://www.w3.org/2000/svg">
  <defs
     id="defs1" />
  <sodipodi:namedview
     id="namedview1"
     pagecolor="#740000"
     bordercolor="#000000"
     borderopacity="0.25"
     inkscape:showpageshadow="2"
     inkscape:pageopacity="0.0"
     inkscape:pagecheckerboard="0"
     inkscape:deskcolor="#d1d1d1"
     inkscape:zoom="2.2598596"
     inkscape:cx="-36.064188"
     inkscape:cy="27.21408"
     inkscape:window-width="2560"
     inkscape:window-height="1369"
     inkscape:window-x="-8"
     inkscape:window-y="-8"
     inkscape:window-maximized="1"
     inkscape:current-layer="D6"
     inkscape:export-bgcolor="#000000ff" />
  <path
     d="M 65.769723,86.89269 V 47.185489 c 0,-0.951226 0.02079,-0.781426 0.701724,-1.039591 q 7.606345,-2.853679 15.221354,-5.69523 l 16.895095,-6.315518 17.092624,-6.384825 9.85013,-3.681887 c 0.15593,-0.05718 0.31014,-0.119554 0.46954,-0.173265 0.26337,-0.07624 0.31362,-0.03986 0.33095,0.244304 0.0104,0.173265 0,0.332669 0,0.499004 0,15.767138 -0.0191,31.516951 0.0242,47.275427 0.019,7.150658 0.0173,14.301316 0.0433,21.451973 0,0.767565 0.0191,0.649744 -0.58909,0.985879 l -14.48671,7.98927 -12.960244,7.14372 -14.635721,8.06723 -15.398085,8.49 c -0.66707,0.36733 -1.332409,0.73984 -1.99948,1.10717 a 2.7895707,2.7895707 0 0 1 -0.294552,0.15246 c -0.185393,0.0745 -0.252967,0.0364 -0.272026,-0.17326 -0.01386,-0.17327 0,-0.33267 0,-0.499 V 86.89269 Z M 61.386112,74.873279 V 46.977571 c 0,-0.576973 0,-0.575241 -0.53539,-0.772763 L 58.204962,45.213731 39.819784,38.343763 19.731409,30.830981 Q 10.894881,27.525079 2.0583525,24.226109 c -0.3101448,-0.116088 -0.6237549,-0.230443 -0.9356324,-0.34653 -0.17326532,-0.06237 -0.27375912,0 -0.28762042,0.173265 -0.013861,0.173265 -0.015594,0.358659 -0.015594,0.538855 q -0.0173264,34.42261 -0.0277223,68.829626 c 0,0.64628 -0.1091571,0.573508 0.57524072,0.952959 l 0.074504,0.03986 6.0798783,3.349218 7.7501546,4.276188 6.918483,3.81184 q 4.158365,2.29923 8.334059,4.60019 4.331631,2.38586 8.663263,4.77173 5.371224,2.95937 10.742446,5.92567 l 10.413243,5.74028 c 0.254699,0.14034 0.507667,0.28415 0.769297,0.41063 0.187127,0.0919 0.249503,0.0502 0.266829,-0.15767 0.01212,-0.15248 0,-0.30494 0,-0.45742 V 74.878477 Z M 122.44653,20.23581 c -0.26163,-0.09356 -0.5198,-0.190592 -0.78316,-0.278957 l -12.34689,-4.22594 -15.611199,-5.3435 Q 87.550899,8.2805071 81.403448,6.1770668 72.747115,3.222894 64.095981,0.25312733 a 1.5004772,1.5004772 0 0 0 -1.039592,0 Q 54.684211,3.137994 46.306836,5.9951382 L 34.273563,10.113654 15.560915,16.524468 4.8999028,20.169969 c -0.1386122,0.04678 -0.3014815,0.05891 -0.3950448,0.214849 0.05891,0.133414 0.1871265,0.157672 0.2980163,0.200988 0.3361346,0.129949 0.6740019,0.256432 1.0118692,0.382916 l 16.3874285,6.119729 13.275585,4.96405 14.871358,5.55835 q 6.346706,2.372001 12.689947,4.749201 a 1.4588935,1.4588935 0 0 0 1.114096,-0.0087 q 5.910078,-2.229924 11.832285,-4.432126 l 17.090886,-6.384825 15.299331,-5.717754 13.93919,-5.197957 c 0.12474,-0.04678 0.27202,-0.06931 0.34653,-0.204454 -0.0225,-0.135146 -0.12649,-0.147275 -0.21485,-0.178463 z"
     id="path1"
     style="stroke-width:0.173266;fill:#ffffff;fill-opacity:1;stroke:#ffffff;stroke-opacity:1" />
</svg>
