<?xml version="1.0" encoding="UTF-8" standalone="no"?>
<svg
   id="D8"
   viewBox="0 0 128.00001 128"
   version="1.1"
   sodipodi:docname="D8.svg"
   width="128"
   height="128"
   inkscape:export-filename="D8.png"
   inkscape:export-xdpi="96"
   inkscape:export-ydpi="96"
   inkscape:version="1.3.2 (091e20e, 2023-11-25, custom)"
   xmlns:inkscape="http://www.inkscape.org/namespaces/inkscape"
   xmlns:sodipodi="http://sodipodi.sourceforge.net/DTD/sodipodi-0.dtd"
   xmlns="http://www.w3.org/2000/svg"
   xmlns:svg="http://www.w3.org/2000/svg">
  <defs
     id="defs1" />
  <sodipodi:namedview
     id="namedview1"
     pagecolor="#a20d0d"
     bordercolor="#000000"
     borderopacity="0.25"
     inkscape:showpageshadow="2"
     inkscape:pageopacity="0.0"
     inkscape:pagecheckerboard="0"
     inkscape:deskcolor="#d1d1d1"
     inkscape:export-bgcolor="#000000ff"
     inkscape:zoom="6.411588"
     inkscape:cx="38.134079"
     inkscape:cy="91.786934"
     inkscape:window-width="2560"
     inkscape:window-height="1369"
     inkscape:window-x="-8"
     inkscape:window-y="-8"
     inkscape:window-maximized="1"
     inkscape:current-layer="D8" />
  <path
     d="M 64.001972,81.797653 H 14.795089 c -0.151543,0 -0.303087,0 -0.454631,0 -0.273811,-0.01722 -0.304809,-0.08094 -0.172208,-0.334085 0.03444,-0.05855 0.07233,-0.11538 0.108491,-0.172209 l 9.226937,-14.982147 q 6.46471,-10.504724 12.932865,-21.009448 6.027301,-9.80039 12.066656,-19.597337 L 59.906851,7.1917263 q 1.90635,-3.0997546 3.814421,-6.1908987 l 0.06544,-0.10676936 c 0.230759,-0.36336013 0.285866,-0.36336013 0.516626,0.0172209 Q 65.283205,2.493876 66.254461,4.0781951 l 9.77456,15.8638549 q 3.693874,6.001469 7.384304,11.999494 4.852838,7.881987 9.70912,15.758808 l 6.716135,10.907692 q 4.33105,7.036443 8.66726,14.071164 2.6434,4.29316 5.28335,8.58632 c 0.0827,0.134323 0.25315,0.275534 0.16188,0.439132 -0.0913,0.163598 -0.29964,0.09127 -0.45808,0.09127 H 64.001972 Z m 47.207538,4.351711 H 86.996985 q -35.07889,0 -70.159502,0 c -0.172209,0 -0.421911,-0.09127 -0.485628,0.0861 -0.06372,0.177375 0.185985,0.27209 0.315141,0.382303 q 3.540609,3.010206 7.091551,6.01008 l 6.750576,5.708715 q 3.909135,3.311578 7.816548,6.617978 3.907413,3.30641 7.852712,6.64381 l 6.244283,5.28508 4.950997,4.18984 q 3.168638,2.68128 6.34072,5.36257 c 0.335807,0.28415 0.344418,0.2807 0.688835,-0.0138 q 1.983843,-1.68075 3.969408,-3.36667 4.966495,-4.20189 9.936435,-8.4055 5.533062,-4.68236 11.06268,-9.37332 5.360853,-4.53942 10.721709,-9.075395 5.51067,-4.649632 11.00585,-9.314762 a 4.0951202,4.0951202 0 0 0 0.72499,-0.673336 1.2054601,1.2054601 0 0 0 -0.61478,-0.06372 z m 4.89933,-9.936436 c 0,-0.675057 0.0327,-1.348393 0.0482,-2.023451 0.0517,-2.298984 0.0241,-4.597969 0.0964,-6.898676 0.0568,-1.801302 0.0138,-3.606048 0.0689,-5.410794 0.0689,-2.269709 0.0241,-4.542862 0.0964,-6.814293 0.0551,-1.775471 0.0155,-3.552664 0.0672,-5.328134 0.0689,-2.326538 0.0258,-4.649632 0.0964,-6.981336 0.0276,-0.888597 0.1171,-0.669892 -0.6079,-1.267456 -1.74103,-1.437941 -3.49239,-2.863828 -5.23858,-4.296604 q -4.7409,-3.890192 -9.48181,-7.783828 -3.52855,-2.896549 -7.060549,-5.786209 l -9.514524,-7.809659 -6.259782,-5.13526 Q 75.706989,8.4505711 72.987816,6.2273582 C 72.899989,6.1550306 72.82594,6.0327625 72.602069,6.0982018 Q 94.300351,41.330357 115.97624,76.531514 a 0.31858589,0.31858589 0 0 0 0.1326,-0.327196 z M 54.98513,6.3082963 Q 53.481749,7.5378656 51.985256,8.7726012 L 38.156907,20.11598 q -5.60539,4.59797 -11.214224,9.192495 -7.522071,6.166789 -15.045864,12.331857 a 0.91787178,0.91787178 0 0 0 -0.384026,0.805936 c 0.04305,1.734141 0.0155,3.470003 0.07577,5.204144 0.07233,1.995897 0.01206,3.993517 0.08266,5.989414 0.07233,2.049283 0.01033,4.102009 0.08266,6.154735 0.07233,2.007953 0.0465,4.019349 0.07577,6.027301 0.04305,2.905159 0.09644,5.810318 0.111936,8.715477 0,0.516625 0,1.047028 0.01033,1.570542 a 0.43052147,0.43052147 0 0 0 0.146378,0.430521 Q 33.803474,41.307969 55.434594,6.0723705 A 0.74566319,0.74566319 0 0 0 54.98513,6.3082963 Z"
     id="path1"
     style="fill:#ffffff;fill-opacity:1;stroke-width:0.172209" />
</svg>
